{"title":"Australian Survivor - S03E13","uid":15861488,"size":553962751,"categoryP":"video","categoryS":"tv_shows","magnet":"?xt=urn:btih:0db8d2322da88f61b4914b27a420ed7efc65b58a&amp;dn=Australian+Survivor+-+S03E13&amp;tr=udp%3A%2F%2Ftracker.leechers-paradise.org%3A6969&amp;tr=udp%3A%2F%2Fzer0day.ch%3A1337&amp;tr=udp%3A%2F%2Fopen.demonii.com%3A1337&amp;tr=udp%3A%2F%2Ftracker.coppersurfer.tk%3A6969&amp;tr=udp%3A%2F%2Fexodus.desync.com%3A6969","seeders":114,"leechers":12,"uploader":"Bullrout","files":1,"time":1474303773,"description":"Australian Survivor - S03E13\r\n\r\nWhich tribe can muster the strength to win the reward challenge for a huge traditional Samoan feast? Plus, Jonathan reveals a massive twist that will give a tribe a huge advantage in the game.\r\n\r\nComplete name                            : Australian Survivor - S03E13.mp4\r\nFormat                                   : MPEG-4\r\nFormat profile                           : Base Media / Version 2\r\nCodec ID                                 : mp42 (mp42/isom/avc1)\r\nFile size                                : 528 MiB\r\nDuration                                 : 1 h 5 min\r\nOverall bit rate mode                    : Variable\r\nOverall bit rate                         : 1 119 kb/s\r\n\r\nVideo\r\nID                                       : 2\r\nFormat                                   : AVC\r\nFormat/Info                              : Advanced Video Codec\r\nFormat profile                           :   \r\nFormat settings, CABAC                   : Yes\r\nFormat settings, ReFrames                : 3 frames\r\nCodec ID                                 : avc1\r\nCodec ID/Info                            : Advanced Video Coding\r\nDuration                                 : 1 h 5 min\r\nBit rate mode                            : Variable\r\nBit rate                                 : 988 kb/s\r\nMaximum bit rate                         : 1 000 kb/s\r\nWidth                                    : 720 pixels\r\nHeight                                   : 404 pixels\r\nDisplay aspect ratio                     : 16:9\r\nOriginal display aspect ratio            : 16:9\r\nFrame rate mode                          : Constant\r\nFrame rate                               : 25.000 FPS\r\nStandard                                 : PAL\r\nColor space                              : YUV\r\nChroma subsampling                       : 4:2:0\r\nBit depth                                : 8 bits\r\nScan type                                : Progressive\r\nBits/(Pixel*Frame)                       : 0.136\r\nStream size                              : 466 MiB (88%)\r\nWriting library                          : x264 core 112\r\nColor range                              : Limited\r\nColor primaries                          : BT.601 PAL\r\nTransfer characteristics                 : BT.470 System B, BT.470 System G\r\nMatrix coefficients                      : BT.601\r\n\r\nAudio\r\nID                                       : 1\r\nFormat                                   : AAC\r\nFormat/Info                              : Advanced Audio Codec\r\nFormat profile                           : LC\r\nCodec ID                                 : 40\r\nDuration                                 : 1 h 5 min\r\nBit rate mode                            : Variable\r\nBit rate                                 : 128 kb/s\r\nMaximum bit rate                         : 576 kb/s\r\nChannel(s)                               : 2 channels\r\nChannel positions                        : Front: L R\r\nSampling rate                            : 48.0 kHz\r\nFrame rate                               : 46.875 FPS (1024 spf)\r\nCompression mode                         : Lossy\r\nStream size                              : 60.4 MiB (11%)","torrent":{"xt":"urn:btih:0db8d2322da88f61b4914b27a420ed7efc65b58a","amp;dn":"Australian+Survivor+-+S03E13","amp;tr":["udp%3A%2F%2Ftracker.leechers-paradise.org%3A6969","udp%3A%2F%2Fzer0day.ch%3A1337","udp%3A%2F%2Fopen.demonii.com%3A1337","udp%3A%2F%2Ftracker.coppersurfer.tk%3A6969","udp%3A%2F%2Fexodus.desync.com%3A6969"],"infoHash":"0db8d2322da88f61b4914b27a420ed7efc65b58a","infoHashBuffer":{"type":"Buffer","data":[13,184,210,50,45,168,143,97,180,145,75,39,164,32,237,126,252,101,181,138]},"announce":[],"urlList":[]}}